<?xml version="1.0" encoding="UTF-8"?>
<!DOCTYPE svg PUBLIC "-//W3C//DTD SVG 1.1//EN" "http://www.w3.org/Graphics/SVG/1.1/DTD/svg11.dtd">
<!-- Creator: CorelDRAW -->
<svg xmlns="http://www.w3.org/2000/svg" xml:space="preserve" width="40.2774mm" height="40.2774mm" version="1.1" style="shape-rendering:geometricPrecision; text-rendering:geometricPrecision; image-rendering:optimizeQuality; fill-rule:evenodd; clip-rule:evenodd"
viewBox="0 0 3244.08 3244.08"
 xmlns:xlink="http://www.w3.org/1999/xlink"
 xmlns:xodm="http://www.corel.com/coreldraw/odm/2003">
 <defs>
  <style type="text/css">
   <![CDATA[
    .fil0 {fill:#FEFEFE}
    .fil1 {fill:#70752B;fill-rule:nonzero}
   ]]>
  </style>
 </defs>
 <g id="Capa_x0020_1">
  <metadata id="CorelCorpID_0Corel-Layer"/>
  <circle class="fil0" cx="1622.04" cy="1622.04" r="1622.04"/>
  <path class="fil1" d="M2483.51 820.56c253.85,268.17 354.98,625.42 306.59,964.6 -3.38,28.38 -8.27,56.32 -14.97,83.53 -0.4,1.8 -0.74,3.58 -1.11,5.37 0.06,-0.63 0.09,-1.28 0.17,-1.93 -74.7,296.44 -341.3,517.44 -661.39,521.08 -381.14,4.35 -693.66,-301.13 -697.99,-682.28 -4.34,-381.17 301.14,-693.67 682.28,-697.99 230.04,-2.61 434.91,107.69 562.29,279.28 -40.8,-75.38 -91.95,-146.73 -153.67,-211.94 -379.95,-401.37 -1013.29,-418.76 -1414.67,-38.81 -401.37,379.92 -418.76,1013.3 -38.81,1414.67 209.39,221.2 495.77,325.74 777.87,311.42 -368.53,61.08 -759.85,-56.09 -1036,-347.82 -441.61,-466.53 -421.41,-1202.71 45.12,-1644.32 466.52,-441.6 1202.7,-421.4 1644.31,45.13zm-1242.34 -557.68c-750.64,210.35 -1188.64,989.4 -978.29,1740.04 210.35,750.64 989.4,1188.65 1740.04,978.3 750.64,-210.38 1188.65,-989.4 978.3,-1740.05 -210.35,-750.64 -989.4,-1188.64 -1740.05,-978.29z"/>
 </g>
</svg>
