<?xml version="1.0" encoding="UTF-8"?>
<!DOCTYPE svg PUBLIC "-//W3C//DTD SVG 1.1//EN" "http://www.w3.org/Graphics/SVG/1.1/DTD/svg11.dtd">
<!-- Creator: CorelDRAW -->
<svg xmlns="http://www.w3.org/2000/svg" xml:space="preserve" width="143.132mm" height="35.0589mm" version="1.1" style="shape-rendering:geometricPrecision; text-rendering:geometricPrecision; image-rendering:optimizeQuality; fill-rule:evenodd; clip-rule:evenodd"
viewBox="0 0 37096.4 9086.44"
 xmlns:xlink="http://www.w3.org/1999/xlink"
 xmlns:xodm="http://www.corel.com/coreldraw/odm/2003">
 <defs>
  <style type="text/css">
   <![CDATA[
    .fil0 {fill:#70752B;fill-rule:nonzero}
   ]]>
  </style>
 </defs>
 <g id="Capa_x0020_1">
  <metadata id="CorelCorpID_0Corel-Layer"/>
  <path class="fil0" d="M12556.64 7449.43l0 406.6 111.01 0c52.41,0 98.1,-19.39 137.23,-58.24 39.06,-38.88 58.63,-87.5 58.63,-145.66 0,-57.8 -19.57,-106.06 -58.63,-144.72 -39.14,-38.7 -84.83,-57.98 -137.23,-57.98l-111.01 0zm0 505.16l0 293.67 -112.9 0 0 -897.4 257 0c74.8,9.98 137.34,40.33 187.62,91.07 58.7,58.6 87.96,128.63 87.96,210.19 0,81.82 -29.73,152.78 -89.16,212.58 -59.43,59.9 -132.65,89.88 -219.52,89.88l-111.01 0z"/>
  <polygon class="fil0" points="13845,8248.24 13732.18,8248.24 13732.18,7350.84 13845,7350.84 "/>
  <path class="fil0" d="M15064.82 7436.94c-95.64,0 -178.39,35.04 -248.24,105.15 -69.77,70.06 -104.68,155.35 -104.68,255.94 0,101.47 34.91,187.05 104.68,256.92 69.85,69.85 152.6,104.76 248.24,104.76 96,0 179.01,-34.91 248.78,-104.76 69.85,-69.87 104.79,-155.45 104.79,-256.92 0,-100.59 -34.94,-185.88 -104.79,-255.94 -69.77,-70.11 -152.78,-105.15 -248.78,-105.15zm331.51 37.4c90.35,90.61 135.6,198.5 135.6,323.69 0,125.99 -45.25,234.24 -135.6,324.57 -90.5,90.53 -200.97,135.68 -331.51,135.68 -130.11,0 -240.46,-45.15 -330.81,-135.68 -90.5,-90.32 -135.68,-198.58 -135.68,-324.57 0,-125.18 45.17,-233.08 135.68,-323.69 90.35,-90.61 200.71,-135.96 330.81,-135.96 130.55,0 241.01,45.36 331.51,135.96z"/>
  <polygon class="fil0" points="16388.74,7350.89 16900.12,8068.09 16900.12,7350.89 17012.94,7350.89 17012.94,8248.29 16888.23,8248.29 16390.01,7549.22 16390.01,8248.29 16277.12,8248.29 16277.12,7350.89 "/>
  <polygon class="fil0" points="18277.67,7350.89 18277.67,7448.81 17902.26,7448.81 17902.26,7750.62 18277.67,7750.62 18277.67,7848.57 17902.26,7848.57 17902.26,8150.38 18277.67,8150.38 18277.67,8248.29 17789.41,8248.29 17789.41,7350.89 "/>
  <path class="fil0" d="M19168.8 7449.43l0 406.6 111.01 0c52.38,0 98.1,-19.39 137.23,-58.24 39.06,-38.88 58.6,-87.5 58.6,-145.66 0,-57.8 -19.54,-106.06 -58.6,-144.72 -39.14,-38.7 -84.85,-57.98 -137.23,-57.98l-111.01 0zm105.43 505.16l-105.43 0 0 293.67 -112.82 0 0 -897.4 256.92 0c74.8,9.98 137.34,40.33 187.72,91.07 58.6,58.6 87.86,128.63 87.86,210.19 0,81.82 -30.09,152.97 -90.43,213.22 -39.86,40.33 -75.26,64.28 -105.98,71.77l201.43 311.14 -130.39 0 -188.89 -293.67z"/>
  <path class="fil0" d="M20778.99 7436.94c-95.66,0 -178.39,35.04 -248.24,105.15 -69.77,70.06 -104.71,155.35 -104.71,255.94 0,101.47 34.94,187.05 104.71,256.92 69.85,69.85 152.58,104.76 248.24,104.76 96,0 179.01,-34.91 248.78,-104.76 69.85,-69.87 104.76,-155.45 104.76,-256.92 0,-100.59 -34.91,-185.88 -104.76,-255.94 -69.77,-70.11 -152.78,-105.15 -248.78,-105.15zm331.51 37.4c90.35,90.61 135.6,198.5 135.6,323.69 0,125.99 -45.25,234.24 -135.6,324.57 -90.5,90.53 -200.97,135.68 -331.51,135.68 -130.13,0 -240.49,-45.15 -330.81,-135.68 -90.5,-90.32 -135.68,-198.58 -135.68,-324.57 0,-125.18 45.17,-233.08 135.68,-323.69 90.32,-90.61 200.68,-135.96 330.81,-135.96 130.55,0 241.01,45.36 331.51,135.96z"/>
  <path class="fil0" d="M22241.96 7776.2c-64.46,-21.23 -116.19,-51.39 -155.25,-90.43 -39.14,-39.03 -58.6,-86.23 -58.6,-141.54 0,-54.04 20.22,-101.49 60.8,-142.55 40.51,-40.87 90.89,-61.45 151.23,-61.45 59.43,0 110.36,21.05 152.78,63.01 22.03,21.67 39.21,52.02 51.76,91.07l-101.05 39.32c-12.52,-33.67 -23.66,-55.52 -33.72,-65.47 -20.32,-20.86 -43.62,-31.18 -69.77,-31.18 -25.79,0 -48.83,10.06 -68.94,30.25 -20.22,20.14 -30.27,45.82 -30.27,77 0,30.71 10.42,56.97 31.18,78.53 21.67,20.76 51.11,39.97 88.61,57.43 71.48,23.22 131.3,58.96 179.56,107.25 55.33,54.84 82.94,119.69 82.94,194.56 0,74.8 -27.34,139.62 -82,194.2 -54.69,54.76 -121.71,82 -201.07,82 -79.83,0 -147.39,-28.07 -202.7,-84.1 -43.26,-42.89 -69.85,-98.38 -79.83,-166.6l108.54 -39.21c6.58,65.29 25.14,112.82 55.49,142.81 33.2,33.2 72.7,49.84 118.5,49.84 46.08,0 86.31,-17.18 120.7,-51.39 34.19,-34.37 51.37,-76.79 51.37,-127.54 0,-50.75 -16.82,-92.89 -50.46,-126.63 -34.11,-33.64 -74.07,-60.08 -119.79,-79.18z"/>
  <path class="fil0" d="M24334.06 7450.68l0 698.45 76.25 0c111.37,0 198.97,-30.74 262.42,-92.27 70.39,-70.31 105.33,-156.15 105.33,-257.57 0,-100.66 -34.94,-186.5 -105.33,-257.54 -63.45,-60.73 -151.05,-91.07 -262.42,-91.07l-76.25 0zm76.79 -99.76c149.67,0.83 266.07,42.97 349.19,126.56 88.95,89.78 133.58,197.1 133.58,321.82 0,125.91 -45.43,234.45 -136.04,325.5 -81.49,81.46 -197.05,122.62 -346.73,123.45l-189.61 0 0 -897.32 189.61 0z"/>
  <polygon class="fil0" points="26128.96,7350.89 26128.96,7448.81 25753.44,7448.81 25753.44,7750.62 26128.96,7750.62 26128.96,7848.57 25753.44,7848.57 25753.44,8150.38 26128.96,8150.38 26128.96,8248.29 25640.62,8248.29 25640.62,7350.89 "/>
  <polygon class="fil0" points="26907.22,8248.27 26907.22,7350.87 27020.06,7350.87 27020.06,8150.35 27342.53,8150.35 27342.53,8248.27 "/>
  <polygon class="fil0" points="29843.89,7350.89 29843.89,8248.29 29730.97,8248.29 29730.97,7518.69 29435.92,7905.9 29140.41,7518.69 29140.41,8248.29 29027.49,8248.29 29027.49,7350.89 29147.9,7350.89 29435.92,7728.15 29723.48,7350.89 "/>
  <path class="fil0" d="M31003.81 7778.07l-86.23 -238.18 -86.59 238.18 172.82 0zm-36.85 -427.17l324.85 897.42 -117.3 0 -135.24 -372.96 -243.94 0 -137.7 372.96 -117.74 0 329.23 -897.42 97.84 0z"/>
  <path class="fil0" d="M32325.87 7231.16c-1.01,9.15 -1.37,25.17 -1.37,48.03l-104.06 -22.42c0.83,-29.52 3.11,-49.92 6.76,-61.17 9.51,-29.08 27.45,-49.01 53.78,-59.9 8.94,-4.09 19.28,-6.19 30.43,-6.19 24.6,0 52.59,11.43 84.31,34.26 5.68,4.22 10.52,7.52 14.25,9.98 0.47,-9.15 0.75,-24.7 0.75,-46.73l105.33 20.58c-1.74,29.91 -4.48,50.57 -8.06,61.71 -9.33,29.18 -27.34,49.48 -54.4,61.17 -9.95,3.29 -19.75,4.95 -29.34,4.95 -24.52,0 -52.77,-11.43 -84.75,-34.29 -5.49,-4.12 -10.08,-7.49 -13.63,-9.98zm-213.95 119.79l511.38 717.09 0 -717.09 112.72 0 0 897.3 -124.69 0 -498.22 -699.08 0 699.08 -112.92 0 0 -897.3 111.73 0z"/>
  <path class="fil0" d="M33906.1 7778.07l-86.23 -238.18 -86.56 238.18 172.79 0zm-36.85 -427.17l324.88 897.42 -117.3 0 -135.24 -372.96 -243.94 0 -137.7 372.96 -117.77 0 329.26 -897.42 97.81 0z"/>
  <polygon class="fil0" points="35014.18,7350.89 35525.56,8068.09 35525.56,7350.89 35638.41,7350.89 35638.41,8248.29 35513.69,8248.29 35015.48,7549.22 35015.48,8248.29 34902.45,8248.29 34902.45,7350.89 "/>
  <path class="fil0" d="M36808.38 7778.07l-86.2 -238.18 -86.59 238.18 172.79 0zm-36.83 -427.17l324.85 897.42 -117.3 0 -135.24 -372.96 -243.94 0 -137.7 372.96 -117.77 0 329.26 -897.42 97.84 0z"/>
  <path class="fil0" d="M12033.67 2450.88l-2763.26 0c142.37,281.8 260.21,581.05 348.62,896.57 3.21,11.53 5.6,23.14 8.79,34.76l672.95 0 0 3160.06 1003.45 0 0 -3160.06 971.65 0 -242.2 -931.32z"/>
  <path class="fil0" d="M13712.38 4591.62c-63.26,-74.69 -129.38,-135.13 -201.22,-178.21 -112.09,-66.09 -232.9,-97.74 -362.17,-97.74 -129.38,0 -250.16,31.65 -362.25,97.74 -71.87,43.08 -137.96,103.52 -201.25,178.21l1126.9 0zm46 -991.76c195.47,77.62 367.93,186.89 520.32,327.7 152.34,140.89 270.19,307.56 356.5,503.06 86.23,192.65 129.28,399.65 129.28,620.99l0 40.22 -2.83 17.21 -5.75 48.91 -356.5 0 0 5.75 -1977.75 0c23.04,160.92 91.98,298.99 209.83,416.83 146.64,146.56 319.1,218.43 517.5,218.43 198.32,0 370.75,-71.87 517.42,-218.43l5.75 -5.75 8.6 -11.51 8.58 -8.6 5.78 -8.68 494.46 707.22c-137.99,112.09 -281.7,201.25 -431.19,261.59 -192.57,77.62 -396.72,115.02 -609.4,115.02 -284.63,0 -551.97,-69.02 -796.37,-204.15 -250.05,-137.99 -448.38,-327.7 -595.04,-566.33 -149.49,-238.55 -224.19,-508.82 -224.19,-807.72 0,-224.27 43.08,-431.27 129.38,-620.99 86.23,-192.57 204.08,-359.35 356.39,-500.13 152.42,-146.67 324.88,-255.94 517.52,-330.63 195.47,-77.62 399.55,-115.02 612.3,-115.02 212.68,0 416.83,37.4 609.4,115.02z"/>
  <path class="fil0" d="M16417.49 4367.38c-51.76,-34.44 -115.02,-51.73 -186.89,-54.58l-51.76 0c-232.77,8.6 -350.64,172.46 -350.64,488.7l0 1742.06 -919.9 0 0 -1742.06c0,-836.6 422.51,-1276.37 1270.54,-1319.55l51.76 0c66.19,2.93 126.53,8.71 186.89,17.29l0 868.14z"/>
  <path class="fil0" d="M18070.41 4367.38c-51.73,-34.44 -115.02,-51.73 -186.87,-54.58l-51.76 0c-232.79,8.6 -350.64,172.46 -350.64,488.7l0 1742.06 -919.9 0 0 -1742.06c0,-836.6 422.51,-1276.37 1270.54,-1319.55l51.76 0c66.19,2.93 126.53,8.71 186.87,17.29l0 868.14z"/>
  <path class="fil0" d="M19898.72 4315.65c-135.13,0 -258.74,31.65 -376.61,97.74 -114.92,66.12 -209.83,155.25 -284.52,270.19 -71.87,112.17 -106.42,235.8 -106.42,370.86 0,204.15 77.62,379.43 230.02,526.08 152.34,146.56 330.53,218.43 537.53,218.43 209.83,0 388.14,-71.87 540.46,-218.43 152.32,-146.64 229.94,-321.92 229.94,-526.08 0,-135.06 -34.47,-258.68 -106.34,-370.86 -74.77,-114.94 -169.61,-204.08 -284.63,-270.19 -117.85,-66.09 -244.3,-97.74 -379.43,-97.74zm773.33 2141.6c-71.87,31.65 -117.85,48.93 -135.13,54.69 -207,77.62 -419.66,117.85 -638.2,117.85 -290.38,0 -569.15,-69.02 -830.74,-204.08 -261.69,-138.06 -468.59,-324.85 -621.01,-563.5 -155.14,-241.45 -232.79,-511.64 -232.79,-807.78 0,-221.36 46,-431.19 135.06,-626.69 89.16,-192.54 212.76,-359.32 370.86,-500.21 158.18,-140.81 336.36,-250.08 540.43,-324.77 207,-77.62 419.68,-117.85 638.2,-117.85 221.36,0 434.12,37.3 638.2,114.92 209.83,77.62 388.04,186.89 540.46,327.7 158.07,146.64 284.52,313.42 373.68,500.21 89.13,195.5 135.13,405.33 135.13,626.69l-2.93 1497.73 -911.21 -8.6 0 -86.31z"/>
  <path class="fil0" d="M22195.62 5617.88c181.11,181.14 405.3,273.12 666.89,273.12 273.12,0 411.08,-80.47 411.08,-241.47 0,-83.4 -74.69,-146.67 -227.01,-186.89 -138.06,-31.65 -307.67,-74.69 -511.74,-129.38 -192.57,-48.83 -350.74,-140.81 -480.12,-275.95 -129.28,-129.36 -192.54,-333.43 -192.54,-609.38 0,-209.93 51.73,-388.14 158.07,-534.71 106.34,-143.71 244.4,-250.16 416.83,-322.03 172.53,-71.84 362.25,-106.31 572.11,-106.31 112.09,0 232.77,17.26 356.39,48.8 135.13,43.18 250.16,91.98 350.74,149.49 112.09,63.29 209.83,135.13 298.96,212.78l-505.96 503.04c-146.56,-112.09 -307.59,-166.68 -482.95,-166.68 -209.83,0 -313.34,57.43 -313.34,175.28 0,103.49 77.62,178.29 232.9,221.36 163.83,43.15 333.43,86.31 514.57,129.38 192.65,48.91 350.72,137.96 474.34,264.49 129.38,129.38 192.54,333.46 192.54,615.16 0,209.86 -54.58,388.14 -166.68,540.46 -112.17,155.25 -261.59,270.19 -445.63,342.04 -189.72,77.62 -382.29,117.87 -577.76,117.87 -161.03,0 -310.49,-14.36 -451.3,-40.25 -138.06,-25.87 -264.52,-68.92 -376.61,-126.43 -129.38,-63.29 -255.83,-143.74 -379.43,-238.65l465.66 -615.16z"/>
  <path class="fil0" d="M25955.7 4315.65c-135.13,0 -258.76,31.65 -376.61,97.74 -114.92,66.12 -209.83,155.25 -284.52,270.19 -71.87,112.17 -106.44,235.8 -106.44,370.86 0,204.15 77.62,379.43 230.05,526.08 152.32,146.56 330.53,218.43 537.53,218.43 209.83,0 388.12,-71.87 540.46,-218.43 152.32,-146.64 229.94,-321.92 229.94,-526.08 0,-135.06 -34.47,-258.68 -106.34,-370.86 -74.77,-114.94 -169.61,-204.08 -284.63,-270.19 -117.85,-66.09 -244.3,-97.74 -379.43,-97.74zm773.33 2141.6c-71.87,31.65 -117.85,48.93 -135.13,54.69 -207,77.62 -419.68,117.85 -638.2,117.85 -290.38,0 -569.15,-69.02 -830.74,-204.08 -261.69,-138.06 -468.59,-324.85 -621.01,-563.5 -155.17,-241.45 -232.79,-511.64 -232.79,-807.78 0,-221.36 46,-431.19 135.06,-626.69 89.13,-192.54 212.76,-359.32 370.83,-500.21 158.18,-140.81 336.39,-250.08 540.46,-324.77 207,-77.62 419.68,-117.85 638.2,-117.85 221.36,0 434.12,37.3 638.2,114.92 209.83,77.62 388.04,186.89 540.46,327.7 158.07,146.64 284.52,313.42 373.68,500.21 89.13,195.5 135.13,405.33 135.13,626.69l-2.93 1497.73 -911.21 -8.6 0 -86.31z"/>
  <path class="fil0" d="M30052.14 4488.13c-83.4,-69.04 -175.38,-120.78 -270.19,-155.25 -100.66,-34.47 -207,-51.76 -322.03,-51.76 -209.83,0 -388.04,69.02 -534.68,204.18 -146.56,135.03 -221.36,304.64 -221.36,505.89 0,158.07 31.65,298.99 94.91,422.59 60.34,123.63 152.32,224.19 273.09,296.06 117.87,74.8 252.9,112.2 405.33,112.2 227.12,0 419.68,-71.87 580.69,-215.69l503.06 638.2c-66.12,71.84 -169.61,140.89 -304.74,204.15 -129.38,60.34 -264.44,103.49 -408.15,132.21 -140.91,28.72 -270.27,43.15 -388.14,43.15 -333.43,0 -626.66,-69.02 -882.5,-209.91 -255.83,-140.81 -451.3,-324.77 -586.44,-557.64 -135.13,-232.9 -204.08,-482.95 -204.08,-750.29 0,-244.4 40.22,-465.77 123.63,-661.24 83.27,-198.32 198.3,-370.75 347.79,-517.42 146.56,-140.89 321.95,-250.05 531.78,-330.61 209.93,-77.62 431.27,-117.87 669.82,-117.87 192.65,0 382.36,31.65 572.11,91.98 186.87,63.29 353.57,152.42 497.28,267.37l-477.17 649.7z"/>
  <path class="fil0" d="M31624.59 2461.48l0 1310.86c89.13,-89.16 198.32,-161.03 327.68,-212.76 132.31,-51.76 267.37,-77.65 402.5,-77.65 738.76,0 1106.76,431.3 1106.76,1296.5l0 1765.1 -919.9 2.83 0 -1704.63c0,-175.38 -40.3,-307.59 -120.78,-396.72 -80.45,-89.08 -192.54,-132.23 -339.21,-132.23 -140.89,0 -252.98,43.15 -333.46,132.23 -83.38,89.13 -123.6,221.34 -123.6,396.72l0 1701.81 -919.9 5.75 0 -4084.99 919.9 -2.83z"/>
  <path class="fil0" d="M35289.81 4315.65c-135.13,0 -258.74,31.65 -376.61,97.74 -114.92,66.12 -209.83,155.25 -284.52,270.19 -71.87,112.17 -106.42,235.8 -106.42,370.86 0,204.15 77.62,379.43 230.02,526.08 152.34,146.56 330.53,218.43 537.53,218.43 209.83,0 388.14,-71.87 540.46,-218.43 152.32,-146.64 229.94,-321.92 229.94,-526.08 0,-135.06 -34.47,-258.68 -106.34,-370.86 -74.77,-114.94 -169.61,-204.08 -284.63,-270.19 -117.85,-66.09 -244.3,-97.74 -379.43,-97.74zm773.33 2141.6c-71.87,31.65 -117.85,48.93 -135.13,54.69 -207,77.62 -419.66,117.85 -638.2,117.85 -290.38,0 -569.15,-69.02 -830.74,-204.08 -261.69,-138.06 -468.59,-324.85 -621.01,-563.5 -155.14,-241.45 -232.79,-511.64 -232.79,-807.78 0,-221.36 46,-431.19 135.06,-626.69 89.16,-192.54 212.76,-359.32 370.86,-500.21 158.18,-140.81 336.36,-250.08 540.43,-324.77 207,-77.62 419.68,-117.85 638.2,-117.85 221.36,0 434.12,37.3 638.2,114.92 209.83,77.62 388.04,186.89 540.46,327.7 158.07,146.64 284.52,313.42 373.68,500.21 89.13,195.5 135.13,405.33 135.13,626.69l-2.93 1497.73 -911.21 -8.6 0 -86.31z"/>
  <path class="fil0" d="M7315.28 1964.17c816.85,862.93 1142.27,2012.51 986.56,3103.92 -10.89,91.33 -26.62,181.22 -48.18,268.79 -1.3,5.78 -2.38,11.53 -3.58,17.29 0.18,-2.02 0.29,-4.12 0.54,-6.22 -240.36,953.9 -1098.26,1665.05 -2128.25,1676.77 -1226.45,14 -2232.11,-968.98 -2246.02,-2195.46 -13.97,-1226.55 969.01,-2232.13 2195.46,-2246.02 740.23,-8.4 1399.48,346.52 1809.36,898.69 -131.3,-242.56 -295.88,-472.17 -494.48,-682 -1222.61,-1291.55 -3260.62,-1347.51 -4552.2,-124.9 -1291.55,1222.54 -1347.51,3260.65 -124.9,4552.2 673.78,711.8 1595.31,1048.19 2503.05,1002.11 -1185.86,196.56 -2445.07,-180.49 -3333.68,-1119.23 -1421.04,-1501.23 -1356.04,-3870.13 145.19,-5291.17 1501.2,-1421.01 3870.1,-1356.01 5291.14,145.22zm-3997.67 -1794.54c-2415.45,676.87 -3824.85,3183.75 -3147.98,5599.17 676.87,2415.45 3183.72,3824.88 5599.17,3148.01 2415.45,-676.97 3824.88,-3183.75 3148.01,-5599.2 -676.87,-2415.45 -3183.75,-3824.85 -5599.2,-3147.98z"/>
 </g>
</svg>
