<?xml version="1.0" encoding="UTF-8"?>
<!DOCTYPE svg PUBLIC "-//W3C//DTD SVG 1.1//EN" "http://www.w3.org/Graphics/SVG/1.1/DTD/svg11.dtd">
<!-- Creator: CorelDRAW -->
<svg xmlns="http://www.w3.org/2000/svg" xml:space="preserve" width="2435px" height="598px" version="1.1" style="shape-rendering:geometricPrecision; text-rendering:geometricPrecision; image-rendering:optimizeQuality; fill-rule:evenodd; clip-rule:evenodd"
viewBox="0 0 2435 598.36"
 xmlns:xlink="http://www.w3.org/1999/xlink"
 xmlns:xodm="http://www.corel.com/coreldraw/odm/2003">
 <defs>
  <style type="text/css">
   <![CDATA[
    .fil0 {fill:#70752B;fill-rule:nonzero}
   ]]>
  </style>
 </defs>
 <g id="Capa_x0020_1">
  <metadata id="CorelCorpID_0Corel-Layer"/>
  <path class="fil0" d="M792.43 161.4l-181.96 0c9.37,18.55 17.13,38.26 22.95,59.04 0.22,0.76 0.38,1.52 0.58,2.28l44.32 0 0 208.1 66.08 0 0 -208.1 63.98 0 -15.95 -61.32z"/>
  <path class="fil0" d="M902.98 302.37c-4.17,-4.92 -8.52,-8.9 -13.25,-11.74 -7.38,-4.35 -15.34,-6.44 -23.85,-6.44 -8.52,0 -16.47,2.09 -23.86,6.44 -4.73,2.84 -9.08,6.82 -13.25,11.74l74.21 0zm3.03 -65.31c12.87,5.11 24.23,12.3 34.26,21.58 10.04,9.27 17.79,20.25 23.47,33.13 5.68,12.68 8.52,26.31 8.52,40.89l0 2.65 -0.18 1.13 -0.38 3.22 -23.48 0 0 0.38 -130.24 0c1.52,10.6 6.06,19.69 13.82,27.45 9.66,9.65 21.02,14.38 34.08,14.38 13.06,0 24.42,-4.73 34.07,-14.38l0.38 -0.38 0.57 -0.76 0.57 -0.57 0.37 -0.57 32.56 46.57c-9.08,7.39 -18.55,13.25 -28.39,17.23 -12.68,5.11 -26.13,7.57 -40.13,7.57 -18.74,0 -36.35,-4.54 -52.44,-13.44 -16.47,-9.09 -29.53,-21.58 -39.18,-37.29 -9.85,-15.71 -14.77,-33.51 -14.77,-53.19 0,-14.77 2.84,-28.4 8.52,-40.89 5.67,-12.69 13.44,-23.67 23.47,-32.94 10.03,-9.66 21.39,-16.85 34.07,-21.77 12.88,-5.11 26.32,-7.57 40.33,-7.57 14,0 27.45,2.46 40.13,7.57z"/>
  <path class="fil0" d="M1081.11 287.6c-3.41,-2.27 -7.57,-3.41 -12.3,-3.59l-3.41 0c-15.33,0.56 -23.09,11.35 -23.09,32.18l0 114.71 -60.58 0 0 -114.71c0,-55.09 27.83,-84.05 83.67,-86.89l3.41 0c4.35,0.19 8.33,0.56 12.3,1.13l0 57.17z"/>
  <path class="fil0" d="M1189.96 287.6c-3.41,-2.27 -7.57,-3.41 -12.3,-3.59l-3.41 0c-15.33,0.56 -23.1,11.35 -23.1,32.18l0 114.71 -60.57 0 0 -114.71c0,-55.09 27.83,-84.05 83.67,-86.89l3.41 0c4.35,0.19 8.33,0.56 12.3,1.13l0 57.17z"/>
  <path class="fil0" d="M1310.36 284.19c-8.9,0 -17.04,2.09 -24.8,6.44 -7.57,4.36 -13.82,10.22 -18.74,17.8 -4.74,7.38 -7.01,15.52 -7.01,24.42 0,13.43 5.12,24.98 15.15,34.64 10.03,9.65 21.77,14.38 35.4,14.38 13.82,0 25.55,-4.73 35.59,-14.38 10.03,-9.66 15.14,-21.21 15.14,-34.64 0,-8.9 -2.27,-17.04 -7.01,-24.42 -4.92,-7.58 -11.16,-13.44 -18.74,-17.8 -7.75,-4.35 -16.09,-6.44 -24.98,-6.44zm50.92 141.04c-4.73,2.07 -7.76,3.21 -8.9,3.59 -13.63,5.11 -27.64,7.76 -42.02,7.76 -19.12,0 -37.49,-4.54 -54.71,-13.44 -17.23,-9.08 -30.86,-21.39 -40.89,-37.1 -10.22,-15.9 -15.34,-33.7 -15.34,-53.19 0,-14.58 3.03,-28.4 8.9,-41.27 5.87,-12.69 14.01,-23.66 24.42,-32.94 10.42,-9.28 22.15,-16.47 35.59,-21.39 13.63,-5.11 27.64,-7.77 42.03,-7.77 14.57,0 28.58,2.47 42.02,7.58 13.82,5.11 25.56,12.3 35.59,21.58 10.41,9.65 18.74,20.63 24.61,32.94 5.87,12.87 8.9,26.69 8.9,41.27l-0.19 98.62 -60.01 -0.57 0 -5.67z"/>
  <path class="fil0" d="M1461.61 369.95c11.92,11.92 26.69,17.98 43.92,17.98 17.98,0 27.07,-5.3 27.07,-15.9 0,-5.49 -4.92,-9.65 -14.96,-12.3 -9.08,-2.09 -20.25,-4.93 -33.7,-8.52 -12.68,-3.22 -23.09,-9.28 -31.61,-18.18 -8.52,-8.51 -12.68,-21.95 -12.68,-40.13 0,-13.82 3.41,-25.55 10.41,-35.21 7.01,-9.46 16.09,-16.47 27.45,-21.2 11.36,-4.73 23.85,-7 37.67,-7 7.38,0 15.33,1.13 23.48,3.21 8.89,2.85 16.47,6.06 23.09,9.85 7.38,4.16 13.82,8.89 19.69,14.01l-33.32 33.12c-9.66,-7.38 -20.26,-10.97 -31.8,-10.97 -13.82,0 -20.64,3.78 -20.64,11.54 0,6.82 5.12,11.74 15.33,14.58 10.8,2.84 21.97,5.68 33.89,8.52 12.68,3.21 23.1,9.08 31.24,17.41 8.51,8.52 12.68,21.96 12.68,40.51 0,13.82 -3.6,25.56 -10.98,35.59 -7.38,10.22 -17.23,17.8 -29.34,22.53 -12.49,5.11 -25.18,7.76 -38.05,7.76 -10.6,0 -20.45,-0.95 -29.72,-2.65 -9.09,-1.71 -17.42,-4.54 -24.8,-8.33 -8.52,-4.17 -16.85,-9.47 -24.99,-15.71l30.67 -40.51z"/>
  <path class="fil0" d="M1709.21 284.19c-8.89,0 -17.03,2.09 -24.79,6.44 -7.57,4.36 -13.82,10.22 -18.74,17.8 -4.74,7.38 -7.01,15.52 -7.01,24.42 0,13.43 5.11,24.98 15.15,34.64 10.03,9.65 21.77,14.38 35.39,14.38 13.83,0 25.56,-4.73 35.6,-14.38 10.03,-9.66 15.14,-21.21 15.14,-34.64 0,-8.9 -2.27,-17.04 -7.01,-24.42 -4.92,-7.58 -11.16,-13.44 -18.74,-17.8 -7.76,-4.35 -16.09,-6.44 -24.99,-6.44zm50.93 141.04c-4.74,2.07 -7.76,3.21 -8.9,3.59 -13.63,5.11 -27.64,7.76 -42.03,7.76 -19.12,0 -37.48,-4.54 -54.7,-13.44 -17.23,-9.08 -30.86,-21.39 -40.89,-37.1 -10.22,-15.9 -15.34,-33.7 -15.34,-53.19 0,-14.58 3.03,-28.4 8.9,-41.27 5.87,-12.69 14.01,-23.66 24.42,-32.94 10.41,-9.28 22.15,-16.47 35.59,-21.39 13.63,-5.11 27.64,-7.77 42.02,-7.77 14.58,0 28.59,2.47 42.03,7.58 13.82,5.11 25.56,12.3 35.59,21.58 10.41,9.65 18.74,20.63 24.61,32.94 5.87,12.87 8.9,26.69 8.9,41.27l-0.19 98.62 -60.01 -0.57 0 -5.67z"/>
  <path class="fil0" d="M1978.97 295.55c-5.49,-4.54 -11.55,-7.95 -17.79,-10.22 -6.63,-2.27 -13.63,-3.41 -21.2,-3.41 -13.82,0 -25.56,4.54 -35.21,13.44 -9.66,8.9 -14.58,20.07 -14.58,33.32 0,10.41 2.08,19.69 6.25,27.83 3.97,8.14 10.03,14.76 17.98,19.5 7.76,4.92 16.66,7.38 26.69,7.38 14.95,0 27.64,-4.73 38.24,-14.2l33.13 42.02c-4.36,4.74 -11.17,9.28 -20.07,13.44 -8.52,3.98 -17.41,6.82 -26.88,8.71 -9.28,1.9 -17.8,2.84 -25.55,2.84 -21.97,0 -41.27,-4.54 -58.12,-13.82 -16.85,-9.27 -29.72,-21.39 -38.62,-36.72 -8.9,-15.33 -13.44,-31.8 -13.44,-49.41 0,-16.09 2.65,-30.67 8.14,-43.54 5.49,-13.06 13.06,-24.42 22.91,-34.07 9.65,-9.28 21.2,-16.47 35.02,-21.77 13.82,-5.11 28.39,-7.76 44.11,-7.76 12.68,0 25.17,2.08 37.67,6.05 12.3,4.17 23.28,10.04 32.74,17.61l-31.42 42.78z"/>
  <path class="fil0" d="M2082.52 162.09l0 86.33c5.87,-5.87 13.06,-10.6 21.58,-14.01 8.71,-3.41 17.6,-5.11 26.5,-5.11 48.65,0 72.88,28.39 72.88,85.37l0 116.23 -60.57 0.19 0 -112.25c0,-11.55 -2.66,-20.26 -7.96,-26.13 -5.3,-5.87 -12.68,-8.71 -22.33,-8.71 -9.28,0 -16.66,2.84 -21.96,8.71 -5.49,5.87 -8.14,14.58 -8.14,26.13l0 112.06 -60.58 0.38 0 -269 60.58 -0.19z"/>
  <path class="fil0" d="M2323.88 284.19c-8.9,0 -17.04,2.09 -24.8,6.44 -7.57,4.36 -13.82,10.22 -18.74,17.8 -4.73,7.38 -7.01,15.52 -7.01,24.42 0,13.43 5.12,24.98 15.15,34.64 10.03,9.65 21.77,14.38 35.4,14.38 13.82,0 25.56,-4.73 35.59,-14.38 10.03,-9.66 15.14,-21.21 15.14,-34.64 0,-8.9 -2.27,-17.04 -7,-24.42 -4.92,-7.58 -11.17,-13.44 -18.75,-17.8 -7.75,-4.35 -16.09,-6.44 -24.98,-6.44zm50.92 141.04c-4.73,2.07 -7.76,3.21 -8.9,3.59 -13.63,5.11 -27.64,7.76 -42.02,7.76 -19.12,0 -37.48,-4.54 -54.71,-13.44 -17.23,-9.08 -30.86,-21.39 -40.89,-37.1 -10.22,-15.9 -15.33,-33.7 -15.33,-53.19 0,-14.58 3.03,-28.4 8.9,-41.27 5.86,-12.69 14,-23.66 24.41,-32.94 10.42,-9.28 22.15,-16.47 35.6,-21.39 13.62,-5.11 27.63,-7.77 42.02,-7.77 14.57,0 28.58,2.47 42.02,7.58 13.82,5.11 25.56,12.3 35.59,21.58 10.41,9.65 18.74,20.63 24.61,32.94 5.87,12.87 8.9,26.69 8.9,41.27l-0.19 98.62 -60.01 -0.57 0 -5.67z"/>
  <path class="fil0" d="M481.72 129.35c53.79,56.82 75.22,132.52 64.97,204.39 -0.72,6.02 -1.76,11.94 -3.18,17.71 -0.08,0.37 -0.15,0.76 -0.23,1.13 0.01,-0.13 0.02,-0.27 0.04,-0.41 -15.83,62.82 -72.33,109.65 -140.15,110.42 -80.77,0.92 -146.99,-63.81 -147.9,-144.58 -0.93,-80.76 63.8,-146.98 144.57,-147.9 48.74,-0.55 92.15,22.82 119.14,59.18 -8.64,-15.97 -19.48,-31.09 -32.56,-44.91 -80.5,-85.05 -214.71,-88.73 -299.76,-8.22 -85.05,80.5 -88.74,214.72 -8.23,299.77 44.37,46.87 105.06,69.02 164.83,65.98 -78.1,12.95 -161.01,-11.88 -219.53,-73.7 -93.57,-98.85 -89.29,-254.85 9.57,-348.43 98.85,-93.57 254.85,-89.29 348.42,9.57zm-263.25 -118.18c-159.06,44.58 -251.87,209.65 -207.3,368.71 44.57,159.07 209.65,251.88 368.71,207.3 159.06,-44.57 251.88,-209.65 207.3,-368.71 -44.57,-159.06 -209.65,-251.87 -368.71,-207.3z"/>
 </g>
</svg>
